Coordinates
version=1
nRows=38
nColumns=12
inDegrees=yes

Units are S.I. units (second, meters, Newtons, ...)
Angles are in degrees

endheader
time	SC_y	SC_z	SC_x	AC_y	AC_z	AC_x	GH_y	GH_z	GH_yy	EL_x	PS_y
       0.0              -12.16          3.578          50.25          54.45           2.26         -18.56         -86.47          -17.7           44.2          93.33          41.38
  0.001038              -12.17          3.582          50.25          54.45          2.258         -18.55         -86.44         -17.69          44.19          93.32           41.4
  0.002076              -12.17          3.586          50.25          54.45          2.256         -18.55         -86.42         -17.68          44.18          93.31          41.42
  0.003114              -12.17           3.59          50.25          54.45          2.255         -18.54         -86.38         -17.67          44.17          93.31          41.44
  0.004153              -12.18          3.594          50.25          54.45          2.253         -18.54         -86.35         -17.66          44.15           93.3          41.46
  0.005191              -12.18          3.598          50.24          54.44          2.251         -18.53         -86.32         -17.64          44.14          93.29          41.48
  0.006229              -12.19          3.603          50.24          54.44          2.249         -18.52         -86.28         -17.63          44.13          93.28           41.5
  0.007267              -12.19          3.608          50.24          54.44          2.246         -18.51         -86.24         -17.61          44.11          93.27          41.53
  0.008305              -12.19          3.614          50.24          54.44          2.244         -18.51          -86.2          -17.6           44.1          93.26          41.55
  0.009343               -12.2           3.62          50.24          54.44          2.241          -18.5         -86.15         -17.58          44.08          93.25          41.58
   0.01038               -12.2          3.626          50.24          54.43          2.238         -18.49          -86.1         -17.56          44.06          93.24          41.61
   0.01142              -12.21          3.633          50.24          54.43          2.235         -18.48         -86.05         -17.54          44.04          93.23          41.65
   0.01246              -12.22          3.641          50.24          54.43          2.232         -18.47          -86.0         -17.52          44.02          93.22          41.68
    0.0135              -12.22          3.649          50.23          54.42          2.229         -18.46         -85.93          -17.5          43.99          93.21          41.72
   0.01453              -12.23          3.657          50.23          54.42          2.225         -18.44         -85.87         -17.47          43.97          93.19          41.76
   0.01557              -12.24          3.667          50.23          54.42          2.221         -18.43          -85.8         -17.44          43.94          93.17          41.81
   0.01661              -12.25          3.677          50.23          54.41          2.216         -18.42         -85.72         -17.41          43.91          93.16          41.86
   0.01765              -12.26          3.688          50.22          54.41          2.211          -18.4         -85.63         -17.38          43.88          93.14          41.91
   0.01869              -12.27            3.7          50.22           54.4          2.206         -18.38         -85.54         -17.34          43.84          93.12          41.97
   0.01972              -12.28          3.713          50.22           54.4            2.2         -18.36         -85.44          -17.3           43.8          93.09          42.03
   0.02076              -12.29          3.728          50.22          54.39          2.193         -18.34         -85.33         -17.26          43.76          93.07           42.1
    0.0218              -12.31          3.744          50.21          54.39          2.186         -18.32          -85.2         -17.21          43.71          93.04          42.18
   0.02284              -12.32          3.762          50.21          54.38          2.178         -18.29         -85.07         -17.16          43.66          93.01          42.26
   0.02388              -12.34          3.781           50.2          54.37           2.17         -18.27         -84.92          -17.1           43.6          92.98          42.36
   0.02492              -12.36          3.803           50.2          54.36           2.16         -18.23         -84.75         -17.04          43.54          92.94          42.46
   0.02595              -12.38          3.828          50.19          54.35          2.149          -18.2         -84.57         -16.97          43.47           92.9          42.58
   0.02699               -12.4          3.855          50.19          54.34          2.137         -18.16         -84.36         -16.89          43.39          92.85          42.71
   0.02803              -12.43          3.886          50.18          54.33          2.124         -18.11         -84.12          -16.8           43.3           92.8          42.86
   0.02907              -12.46          3.921          50.17          54.32          2.108         -18.06         -83.86          -16.7           43.2          92.74          43.03
   0.03011              -12.49           3.96          50.16           54.3          2.091         -18.01         -83.55         -16.58          43.08          92.67          43.22
   0.03114              -12.53          4.005          50.15          54.28          2.071         -17.94         -83.21         -16.45          42.95          92.59          43.43
   0.03218              -12.57          4.057          50.14          54.26          2.048         -17.87         -82.82         -16.29           42.8           92.5          43.68
   0.03322              -12.62          4.116          50.13          54.24          2.022         -17.78         -82.36         -16.12          42.62           92.4          43.97
   0.03426              -12.68          4.186          50.11          54.21          1.991         -17.68         -81.83         -15.92          42.42          92.28           44.3
    0.0353              -12.75          4.267          50.09          54.18          1.955         -17.57         -81.21         -15.68          42.18          92.14          44.69
   0.03633              -12.83          4.362          50.07          54.14          1.913         -17.43         -80.48          -15.4           41.9          91.98          45.15
   0.03737              -12.93          4.476          50.05           54.1          1.862         -17.26         -79.61         -15.06          41.57          91.78           45.7
   0.03841              -13.05          4.612          50.02          54.04          1.802         -17.07         -78.57         -14.66          41.17          91.55          46.36
